<?xml version="1.0" encoding="utf-8"?><svg xmlns="http://www.w3.org/2000/svg" viewBox="0 0 122.88 121.52"><path d="M28.84 26.32l.13 8.96h2.18c.13 19.75 7.17 33.26 16.37 39.74 3.92 2.76 8.23 4.25 12.59 4.42 4.37.17 8.76-.98 12.83-3.51 9.43-5.86 17.13-19.18 18.54-40.65h2.55V25.8l-1.94.52c-6.42-35.34-53.67-34.86-60.49 0h-2.76zm9.43 50.53c-.74 2.19 23.17 22.34 44.82 0 6.36 5.72 21.14 6.87 28.15 10.78 2.21 1.23 4.22 2.81 5.83 4.93 4.44 5.86 4.73 15.38 5.81 22.67-.36 3.78-2.5 5.96-6.73 6.29H6.73c-4.23-.32-6.37-2.5-6.73-6.29 1.08-7.29 1.38-16.81 5.81-22.67 1.61-2.13 3.61-3.7 5.83-4.93 7.01-3.9 20.27-5.05 26.63-10.78zm-4.81-40.17L60.4 39.5h2.16l26.53-2.87c.04-.45.07-.89.1-1.35H33.44c0 .48.01.94.02 1.4zm54.58 8.23c-8.6 8.83-17.74 9.08-26.6-.92-9.63 9.96-18.96 10.66-27.49-.37.46 3.82 1.2 7.33 2.19 10.53 2.33.71 4.13 9.95 11.55 5.6 8.74-2.7 17.72-2.75 26.96 0 6.58 3.9 8.25-2.94 10.45-3.83 1.21-3.27 2.21-6.94 2.94-11.01zm-18.32 1.28c-1.05-.89-1.95-2.02-2.71-3.41l16.06-2.52c.46-.07 1.15-.28 1.53.1.19.19.18.5-.01.9-2.89 5.88-9.07 9.85-14.87 4.93zm-16.58 0c1.05-.89 1.95-2.02 2.71-3.41l-16.06-2.52c-.46-.07-1.15-.28-1.53.1-.19.19-.18.5.01.9 2.89 5.88 9.07 9.85 14.87 4.93zm8.52 17.3c5.38 0 9.73 1.69 9.73 3.77s-4.36 3.77-9.73 3.77c-5.38 0-9.73-1.69-9.73-3.77s4.36-3.77 9.73-3.77z" fill-rule="evenodd" clip-rule="evenodd"/></svg>